<svg xmlns="http://www.w3.org/2000/svg" viewBox="0 0 480 300" role="img" aria-label="Canvas yıldız alanı">
  <defs>
    <linearGradient id="cz" x1="0" y1="0" x2="0" y2="1">
      <stop offset="0" stop-color="#0B0616"/><stop offset="1" stop-color="#150A28"/>
    </linearGradient>
    <radialGradient id="parla"><stop offset="0" stop-color="#9CE085" stop-opacity=".55"/><stop offset="1" stop-color="#9CE085" stop-opacity="0"/></radialGradient>
  </defs>
  <rect width="480" height="300" fill="url(#cz)"/>
  <ellipse cx="330" cy="96" rx="150" ry="70" fill="url(#parla)" opacity=".5"/>
  <g fill="#F2E9F6">
    <rect x="42" y="58" width="1.6" height="1.6" opacity=".8"/><rect x="96" y="112" width="1.6" height="1.6" opacity=".5"/>
    <rect x="150" y="44" width="1.6" height="1.6" opacity=".9"/><rect x="188" y="150" width="1.6" height="1.6" opacity=".4"/>
    <rect x="232" y="82" width="1.6" height="1.6" opacity=".7"/><rect x="270" y="196" width="1.6" height="1.6" opacity=".55"/>
    <rect x="314" y="128" width="1.6" height="1.6" opacity=".85"/><rect x="358" y="66" width="1.6" height="1.6" opacity=".45"/>
    <rect x="404" y="172" width="1.6" height="1.6" opacity=".75"/><rect x="440" y="104" width="1.6" height="1.6" opacity=".5"/>
    <rect x="74" y="212" width="1.6" height="1.6" opacity=".6"/><rect x="126" y="248" width="1.6" height="1.6" opacity=".35"/>
    <rect x="206" y="232" width="1.6" height="1.6" opacity=".7"/><rect x="292" y="42" width="1.6" height="1.6" opacity=".5"/>
    <rect x="380" y="238" width="1.6" height="1.6" opacity=".4"/><rect x="454" y="200" width="1.6" height="1.6" opacity=".65"/>
  </g>
  <g fill="#9CE085">
    <circle cx="150" cy="44" r="2.6"/><circle cx="314" cy="128" r="3"/><circle cx="404" cy="172" r="2.2"/>
  </g>
  <!-- kare bütçesi çizgisi -->
  <g opacity=".5"><rect x="42" y="272" width="396" height="1" fill="#9CE085" opacity=".35"/>
  <rect x="42" y="269" width="216" height="6" fill="#9CE085" opacity=".7"/></g>
  <text x="42" y="262" fill="#6E6087" font-family="Oxanium,monospace" font-size="12" letter-spacing="2">16.7 MS</text>
</svg>
